<?xml version="1.0" encoding="UTF-8"?>
<svg width="124px" height="44px" viewBox="0 0 124 44" version="1.1" xmlns="http://www.w3.org/2000/svg" xmlns:xlink="http://www.w3.org/1999/xlink">
    <!-- Generator: Sketch 61.2 (89653) - https://sketch.com -->
    <title>ACP</title>
    <desc>Created with Sketch.</desc>
    <g id="🎨03" stroke="none" stroke-width="1" fill="none" fill-rule="evenodd">
        <path d="M10.734,43 L13.338,35.994 L31.07,35.994 L33.674,43 L43.656,43 L27.722,1.646 L16.686,1.646 L0.752,43 L10.734,43 Z M28.652,28.244 L15.756,28.244 L22.204,10.45 L28.652,28.244 Z M66.44875,43.744 C75.50075,43.744 80.77075,38.722 83.68475,33.576 L76.12075,29.918 C74.38475,33.266 70.66475,35.932 66.44875,35.932 C58.88475,35.932 53.42875,30.166 53.42875,22.354 C53.42875,14.542 58.88475,8.776 66.44875,8.776 C70.66475,8.776 74.38475,11.442 76.12075,14.79 L83.68475,11.07 C80.77075,5.862 75.50075,0.964 66.44875,0.964 C53.98675,0.964 44.37675,9.582 44.37675,22.354 C44.37675,35.064 53.98675,43.744 66.44875,43.744 Z M98.7275,43 L98.7275,28.244 L109.2675,28.244 C118.1955,28.244 123.1555,22.168 123.1555,14.976 C123.1555,7.722 118.2575,1.646 109.2675,1.646 L89.9235,1.646 L89.9235,43 L98.7275,43 Z M108.0275,20.494 L98.7275,20.494 L98.7275,9.396 L108.0275,9.396 C111.4995,9.396 114.1655,11.504 114.1655,14.976 C114.1655,18.386 111.4995,20.494 108.0275,20.494 Z" id="ACP" fill="#3646E2" fill-rule="nonzero"></path>
    </g>
</svg>